<svg xmlns="http://www.w3.org/2000/svg" viewBox="0 0 320 112" role="img" aria-labelledby="title desc">
<title id="title">CR400AF-AE Q版首车侧视图</title><desc id="desc">银灰车身、红金波浪飘带。修长鼻部、独立侧驾驶窗、窗下红金飘带。外观核对：https://www.china-emu.cn/Trains/Model/Detail-12125-102-S.html。首车比例压缩，参考外观，非实际编组。</desc>
<metadata>Yukino original side-view drawing, revision 2, 2026-09-29. CC BY-SA 4.0. Photo reference: https://commons.wikimedia.org/wiki/File:20250427_CR400AF-AE-2399@G897.jpg; China-EMU review: https://www.china-emu.cn/Trains/Model/Detail-12125-102-S.html. The site's front-view avatars are not reproduced.</metadata>
<defs><linearGradient id="body" x1="0" y1="0" x2="0" y2="1"><stop stop-color="#eff2f3"/><stop offset=".48" stop-color="#cdd4da"/><stop offset="1" stop-color="#adb8c1"/></linearGradient><linearGradient id="noseSilver" x1="0" y1="0" x2="0" y2="1"><stop stop-color="#d8e1e8"/><stop offset=".55" stop-color="#b8c6d0"/><stop offset="1" stop-color="#8b9fae"/></linearGradient><linearGradient id="glass" x1="0" y1="0" x2="1" y2="1"><stop stop-color="#3b5264"/><stop offset="1" stop-color="#122938"/></linearGradient><clipPath id="car"><path d="M12 82C12 74 27 68 41 60C58 42 70 24 100 21H302Q309 21 309 28V88H30Q13 88 12 82Z"/></clipPath></defs>
<ellipse cx="169" cy="102" rx="142" ry="3" fill="#315c42" opacity=".07"/>
<g fill="#293740"><rect x="70" y="84" width="43" height="10" rx="3"/><rect x="251" y="84" width="43" height="10" rx="3"/><circle cx="79" cy="95" r="6"/><circle cx="105" cy="95" r="6"/><circle cx="260" cy="95" r="6"/><circle cx="286" cy="95" r="6"/></g><g fill="#b0bac0"><circle cx="79" cy="95" r="2.5"/><circle cx="105" cy="95" r="2.5"/><circle cx="260" cy="95" r="2.5"/><circle cx="286" cy="95" r="2.5"/></g>
<path d="M12 82C12 74 27 68 41 60C58 42 70 24 100 21H302Q309 21 309 28V88H30Q13 88 12 82Z" fill="url(#body)" /><g clip-path="url(#car)"><path d="M12 80H314V93H12Z" fill="#687d8e" opacity=".4"/><path d="M110 43H312V63H79Q88 51 110 43Z" fill="#253d4e" /><path d="M41 74Q73 41 103 29Q132 24 159 39L174 46Q132 30 110 40Q73 58 41 74Z" fill="#dc3040" /><path d="M45 72Q76 44 108 35Q136 31 164 43" fill="none" stroke="#d99b39" stroke-width="2.3" stroke-linejoin="round"/><path d="M111 64Q157 58 189 73Q223 92 255 72Q278 57 314 66V76Q279 66 260 82Q224 104 186 83Q153 65 111 68Z" fill="#dc3040" /><path d="M114 65Q155 61 189 77Q224 95 257 77Q280 62 314 71" fill="none" stroke="#d99b39" stroke-width="2.5" stroke-linejoin="round"/><rect x="157" y="46" width="18" height="12" rx="1.8" fill="url(#glass)" stroke="#223746" stroke-width=".6"/><rect x="184" y="46" width="18" height="12" rx="1.8" fill="url(#glass)" stroke="#223746" stroke-width=".6"/><rect x="211" y="46" width="18" height="12" rx="1.8" fill="url(#glass)" stroke="#223746" stroke-width=".6"/><rect x="238" y="46" width="18" height="12" rx="1.8" fill="url(#glass)" stroke="#223746" stroke-width=".6"/><rect x="265" y="46" width="18" height="12" rx="1.8" fill="url(#glass)" stroke="#223746" stroke-width=".6"/><rect x="291" y="46" width="18" height="12" rx="1.8" fill="url(#glass)" stroke="#223746" stroke-width=".6"/>
<path d="M24 70Q46 52 61 35Q78 22 100 22L113 23Q81 27 68 43L36 73Z" fill="#25323d" /><path d="M62 50Q77 34 93 31L105 32 100 46 72 56Q62 57 62 50Z" fill="url(#glass)" stroke="#253845" stroke-width="1.1"/><path d="M24 70Q46 52 61 35Q78 22 100 22L113 23Q81 27 68 43L36 73Z" fill="none" stroke="#435665" stroke-width="0.9" stroke-linejoin="round"/><path d="M34 66 48 57 52 58 43 67Z" fill="#f7f6db" stroke="#8a9293" stroke-width=".8"/>
<path d="M123 34H140V80H123Z" fill="none" stroke="#71838c" stroke-width="1" stroke-linejoin="round"/><rect x="127" y="41" width="9" height="18" rx="4.5" fill="url(#glass)"/><path d="M137 67v4" fill="none" stroke="#41545e" stroke-width="1" stroke-linejoin="round"/><path d="M302 27V87" fill="none" stroke="#697b84" stroke-width="1.2" stroke-linejoin="round"/><path d="M111 79H307" fill="none" stroke="#82959f" stroke-width="0.8" stroke-linejoin="round"/>
<rect x="166" y="82" width="11" height="4" rx=".5" fill="#83949e" opacity=".6"/><rect x="196" y="82" width="11" height="4" rx=".5" fill="#83949e" opacity=".6"/><rect x="226" y="82" width="11" height="4" rx=".5" fill="#83949e" opacity=".6"/><rect x="256" y="82" width="11" height="4" rx=".5" fill="#83949e" opacity=".6"/><rect x="284" y="82" width="11" height="4" rx=".5" fill="#83949e" opacity=".6"/><path d="M181 24H207 M216 24H240 M251 24H278" fill="none" stroke="#a5b5bc" stroke-width="1.4" stroke-linejoin="round"/><path d="M22 78Q28 73 37 73Q43 78 43 86" fill="none" stroke="#788a94" stroke-width="0.9" stroke-linejoin="round"/></g><path d="M12 82C12 74 27 68 41 60C58 42 70 24 100 21H302Q309 21 309 28V88H30Q13 88 12 82Z" fill="none" stroke="#405666" stroke-width="1.5" stroke-linejoin="round"/></svg>
