<svg xmlns="http://www.w3.org/2000/svg" viewBox="0 0 320 112" role="img" aria-labelledby="title desc">
<title id="title">CR400BF-BS Q版首车侧视图</title><desc id="desc">银灰车身、红金飘带。尖长低鼻、黑色驾驶区、侧面红色飘带。参考：https://commons.wikimedia.org/wiki/File:CR400BF-BS-5277@BJN_(20260315170135).jpg，摄影：N509FZ。首车示意，非完整编组。</desc>
<metadata>Original vector illustration: Yukino, 2026-09-28. CC BY-SA 4.0. Photo reference: https://commons.wikimedia.org/wiki/File:CR400BF-BS-5277@BJN_(20260315170135).jpg (CC BY-SA 4.0).</metadata>
<defs><linearGradient id="body" x1="0" y1="0" x2="0" y2="1"><stop stop-color="#fff"/><stop offset=".7" stop-color="#dfe6eb"/><stop offset="1" stop-color="#c9d4dd"/></linearGradient><linearGradient id="glass" x1="0" y1="0" x2="1" y2="1"><stop stop-color="#607e95"/><stop offset="1" stop-color="#243c50"/></linearGradient><clipPath id="car"><path d="M12 81 Q14 73 43 62 L82 33 Q97 21 126 21 H302 Q308 21 308 29 V85 H30 Q12 85 12 81Z"/></clipPath></defs>
<ellipse cx="166" cy="101" rx="143" ry="5" fill="#315c42" opacity=".08"/>
<g fill="#263c4c" stroke="#263c4c" stroke-width="1.5"><rect x="72" y="81" width="43" height="10" rx="4"/><rect x="250" y="81" width="42" height="10" rx="4"/><circle cx="81" cy="92" r="7"/><circle cx="106" cy="92" r="7"/><circle cx="258" cy="92" r="7"/><circle cx="283" cy="92" r="7"/></g>
<g fill="#b5c4cf"><circle cx="81" cy="92" r="3"/><circle cx="106" cy="92" r="3"/><circle cx="258" cy="92" r="3"/><circle cx="283" cy="92" r="3"/></g>
<path d="M12 81 Q14 73 43 62 L82 33 Q97 21 126 21 H302 Q308 21 308 29 V85 H30 Q12 85 12 81Z" fill="url(#body)"/>
<g clip-path="url(#car)"><path d="M10 80 H316 V90 H10Z" fill="#94a9b7" opacity=".55"/><path d="M116 40 H316 V60 H103Z" fill="#293d4e"/><path d="M26 76 Q56 64 82 47 Q111 31 153 36 Q174 39 200 36" fill="none" stroke="#c52d42" stroke-width="3"/><path d="M50 84 Q87 59 134 62 Q181 81 227 76 Q268 70 316 62" fill="none" stroke="#c52d42" stroke-width="10"/><path d="M43 83 Q87 64 134 69 Q180 86 227 81 Q269 75 316 67" fill="none" stroke="#c9a146" stroke-width="2.5"/><rect x="174" y="42" width="20" height="15" rx="3" fill="url(#glass)"/><rect x="201" y="42" width="20" height="15" rx="3" fill="url(#glass)"/><rect x="228" y="42" width="20" height="15" rx="3" fill="url(#glass)"/><rect x="255" y="42" width="20" height="15" rx="3" fill="url(#glass)"/><rect x="282" y="42" width="20" height="15" rx="3" fill="url(#glass)"/><path d="M143 34H162V80H143Z" fill="none" stroke="#7d939f" stroke-width="1.3"/><rect x="147" y="40" width="11" height="17" rx="2" fill="url(#glass)"/><path d="M159 65v5" stroke="#42586a" stroke-width="1.5"/><path d="M301 27V84" stroke="#8196a4" stroke-width="1.5"/><path d="M174 77H226" stroke="#93a7b5" stroke-width="1.1"/></g>
<path d="M12 81 Q14 73 43 62 L82 33 Q97 21 126 21 H302 Q308 21 308 29 V85 H30 Q12 85 12 81Z" fill="none" stroke="#425a6b" stroke-width="1.8" stroke-linejoin="round"/>
<g clip-path="url(#car)"><path d="M53 54 89 30 Q98 26 116 26 L105 43 70 57Z" fill="url(#glass)" stroke="#263f51" stroke-width="1.2"/><path d="M109 41 134 39 134 54 104 56Z" fill="url(#glass)" stroke="#263f51" stroke-width="1.2"/></g>
<path d="M27 70l12-3" stroke="#f9f0b8" stroke-width="3.5" stroke-linecap="round"/>
<path d="M28 80Q36 78 47 80" fill="none" stroke="#8095a4" stroke-width="1.2"/><path d="M181 25H261" stroke="#e4ebef" stroke-width="3" stroke-linecap="round"/>
</svg>
