<svg xmlns="http://www.w3.org/2000/svg" viewBox="0 0 320 112" role="img" aria-labelledby="title desc">
<title id="title">CRH380BG Q版首车侧视图</title><desc id="desc">白色车身、蓝色腰线。对应头型轮廓、独立侧驾驶窗、深色客窗带。外观核对：https://www.china-emu.cn/Trains/Model/Detail-31001-101-S.html。首车比例压缩，参考外观，非实际编组。</desc>
<metadata>Yukino original side-view drawing, revision 2, 2026-09-29. CC BY-SA 4.0. Photo reference: https://commons.wikimedia.org/wiki/File:CRH380BG-5709_EMU_at_Jilin_Railway_Station.jpg; China-EMU review: https://www.china-emu.cn/Trains/Model/Detail-31001-101-S.html. The site's front-view avatars are not reproduced.</metadata>
<defs><linearGradient id="body" x1="0" y1="0" x2="0" y2="1"><stop stop-color="#fffef9"/><stop offset=".48" stop-color="#f8faf7"/><stop offset="1" stop-color="#dbe1e1"/></linearGradient><linearGradient id="noseSilver" x1="0" y1="0" x2="0" y2="1"><stop stop-color="#d8e1e8"/><stop offset=".55" stop-color="#b8c6d0"/><stop offset="1" stop-color="#8b9fae"/></linearGradient><linearGradient id="glass" x1="0" y1="0" x2="1" y2="1"><stop stop-color="#3b5264"/><stop offset="1" stop-color="#122938"/></linearGradient><clipPath id="car"><path d="M17 82Q14 69 33 55Q56 26 88 21H302Q309 21 309 28V88H34Q19 88 17 82Z"/></clipPath></defs>
<ellipse cx="169" cy="102" rx="142" ry="3" fill="#315c42" opacity=".07"/>
<g fill="#293740"><rect x="70" y="84" width="43" height="10" rx="3"/><rect x="251" y="84" width="43" height="10" rx="3"/><circle cx="79" cy="95" r="6"/><circle cx="105" cy="95" r="6"/><circle cx="260" cy="95" r="6"/><circle cx="286" cy="95" r="6"/></g><g fill="#b0bac0"><circle cx="79" cy="95" r="2.5"/><circle cx="105" cy="95" r="2.5"/><circle cx="260" cy="95" r="2.5"/><circle cx="286" cy="95" r="2.5"/></g>
<path d="M17 82Q14 69 33 55Q56 26 88 21H302Q309 21 309 28V88H34Q19 88 17 82Z" fill="url(#body)" /><g clip-path="url(#car)"><path d="M12 80H314V93H12Z" fill="#9daab1" opacity=".4"/><path d="M113 43H312V62H98Z" fill="#253d4e" /><path d="M39 73 78 61H314" fill="none" stroke="#174e92" stroke-width="2.7" stroke-linejoin="round"/><path d="M39 73 69 52 79 48 67 64Z" fill="#174e92" /><rect x="157" y="46" width="18" height="12" rx="1.8" fill="url(#glass)" stroke="#223746" stroke-width=".6"/><rect x="184" y="46" width="18" height="12" rx="1.8" fill="url(#glass)" stroke="#223746" stroke-width=".6"/><rect x="211" y="46" width="18" height="12" rx="1.8" fill="url(#glass)" stroke="#223746" stroke-width=".6"/><rect x="238" y="46" width="18" height="12" rx="1.8" fill="url(#glass)" stroke="#223746" stroke-width=".6"/><rect x="265" y="46" width="18" height="12" rx="1.8" fill="url(#glass)" stroke="#223746" stroke-width=".6"/><rect x="291" y="46" width="18" height="12" rx="1.8" fill="url(#glass)" stroke="#223746" stroke-width=".6"/>
<path d="M25 67Q39 42 66 26L94 22Q65 31 52 49L34 70Z" fill="#25323d" /><path d="M61 49Q72 35 85 32H107Q104 47 91 51L67 57Z" fill="url(#glass)" stroke="#253845" stroke-width="1.1"/><path d="M25 67Q39 42 66 26L94 22Q65 31 52 49L34 70Z" fill="none" stroke="#435665" stroke-width="0.9" stroke-linejoin="round"/><path d="M28 70 40 57 46 60 35 73Z" fill="#f7f6db" stroke="#8a9293" stroke-width=".8"/>
<path d="M130 34H147V80H130Z" fill="none" stroke="#71838c" stroke-width="1" stroke-linejoin="round"/><rect x="134" y="41" width="9" height="18" rx="4.5" fill="url(#glass)"/><path d="M144 67v4" fill="none" stroke="#41545e" stroke-width="1" stroke-linejoin="round"/><path d="M302 27V87" fill="none" stroke="#697b84" stroke-width="1.2" stroke-linejoin="round"/><path d="M111 79H307" fill="none" stroke="#82959f" stroke-width="0.8" stroke-linejoin="round"/>
<rect x="166" y="82" width="11" height="4" rx=".5" fill="#83949e" opacity=".6"/><rect x="196" y="82" width="11" height="4" rx=".5" fill="#83949e" opacity=".6"/><rect x="226" y="82" width="11" height="4" rx=".5" fill="#83949e" opacity=".6"/><rect x="256" y="82" width="11" height="4" rx=".5" fill="#83949e" opacity=".6"/><rect x="284" y="82" width="11" height="4" rx=".5" fill="#83949e" opacity=".6"/><path d="M181 24H207 M216 24H240 M251 24H278" fill="none" stroke="#a5b5bc" stroke-width="1.4" stroke-linejoin="round"/><path d="M22 78Q28 73 37 73Q43 78 43 86" fill="none" stroke="#788a94" stroke-width="0.9" stroke-linejoin="round"/></g><path d="M17 82Q14 69 33 55Q56 26 88 21H302Q309 21 309 28V88H34Q19 88 17 82Z" fill="none" stroke="#405666" stroke-width="1.5" stroke-linejoin="round"/></svg>
