<svg xmlns="http://www.w3.org/2000/svg" viewBox="0 0 320 112" role="img" aria-labelledby="title desc">
<title id="title">CR200JN Q版首车侧视图</title><desc id="desc">白色车身、绿色窗区与红色双曲线。动力车侧视参考，侧面通风区，不将控制车客窗当作动力车。外观核对：https://www.china-emu.cn/Trains/Model/Detail-10202-106-S.html。首车比例压缩，参考外观，非实际编组。</desc>
<metadata>Yukino original side-view drawing, revision 2, 2026-09-29. CC BY-SA 4.0. Photo reference: https://www.china-emu.cn/Trains/Model/Detail-10202-106-S.html; China-EMU review: https://www.china-emu.cn/Trains/Model/Detail-10202-106-S.html. The site's front-view avatars are not reproduced.</metadata>
<defs><linearGradient id="body" x1="0" y1="0" x2="0" y2="1"><stop stop-color="#fffef9"/><stop offset=".48" stop-color="#f8faf7"/><stop offset="1" stop-color="#dbe1e1"/></linearGradient><linearGradient id="noseSilver" x1="0" y1="0" x2="0" y2="1"><stop stop-color="#d8e1e8"/><stop offset=".55" stop-color="#b8c6d0"/><stop offset="1" stop-color="#8b9fae"/></linearGradient><linearGradient id="glass" x1="0" y1="0" x2="1" y2="1"><stop stop-color="#3b5264"/><stop offset="1" stop-color="#122938"/></linearGradient><clipPath id="car"><path d="M27 82Q22 66 34 45Q49 21 91 20H302Q309 20 309 28V88H43Q29 88 27 82Z"/></clipPath></defs>
<ellipse cx="169" cy="102" rx="142" ry="3" fill="#315c42" opacity=".07"/>
<g fill="#293740"><rect x="70" y="84" width="43" height="10" rx="3"/><rect x="251" y="84" width="43" height="10" rx="3"/><circle cx="79" cy="95" r="6"/><circle cx="105" cy="95" r="6"/><circle cx="260" cy="95" r="6"/><circle cx="286" cy="95" r="6"/></g><g fill="#b0bac0"><circle cx="79" cy="95" r="2.5"/><circle cx="105" cy="95" r="2.5"/><circle cx="260" cy="95" r="2.5"/><circle cx="286" cy="95" r="2.5"/></g>
<path d="M205 20h40v-4h-40Z" fill="#6d7c81"/><path d="M220 16 209 8 233 4 245 8 232 16" fill="none" stroke="#963845" stroke-width="1.8"/><path d="M222 3h26" stroke="#485962" stroke-width="2"/><path d="M27 82Q22 66 34 45Q49 21 91 20H302Q309 20 309 28V88H43Q29 88 27 82Z" fill="url(#body)" /><g clip-path="url(#car)"><path d="M12 80H314V93H12Z" fill="#9daab1" opacity=".4"/><path d="M102 42H312V64H80Z" fill="#253d4e" /><path d="M49 58 94 37 115 45H314V64H90Z" fill="#166b4f"/><path d="M34 77Q68 57 86 61Q111 59 128 69H314" fill="none" stroke="#ba3450" stroke-width="2.8"/><path d="M39 79Q71 64 92 66L127 73H314" fill="none" stroke="#ba3450" stroke-width="1.4"/><path d="M18 85Q59 72 88 81H314V91H18Z" fill="#166b4f"/><path d="M164 48h32v11h-32Z M222 48h39v11h-39Z" fill="#677f78"/><path d="M166 48v10" stroke="#324b44" stroke-width="1"/><path d="M174 48v10" stroke="#324b44" stroke-width="1"/><path d="M182 48v10" stroke="#324b44" stroke-width="1"/><path d="M190 48v10" stroke="#324b44" stroke-width="1"/><path d="M198 48v10" stroke="#324b44" stroke-width="1"/><path d="M206 48v10" stroke="#324b44" stroke-width="1"/><path d="M214 48v10" stroke="#324b44" stroke-width="1"/><path d="M222 48v10" stroke="#324b44" stroke-width="1"/><path d="M230 48v10" stroke="#324b44" stroke-width="1"/><path d="M238 48v10" stroke="#324b44" stroke-width="1"/><path d="M246 48v10" stroke="#324b44" stroke-width="1"/><path d="M254 48v10" stroke="#324b44" stroke-width="1"/>
<path d="M29 64Q31 40 61 25L96 22Q64 32 49 52L40 71Z" fill="#25323d" /><path d="M57 47 74 31H90V50L65 56Z" fill="url(#glass)" stroke="#253845" stroke-width="1.1"/><path d="M29 64Q31 40 61 25L96 22Q64 32 49 52L40 71Z" fill="none" stroke="#435665" stroke-width="0.9" stroke-linejoin="round"/><path d="M31 69 42 57 47 60 38 73Z" fill="#f7f6db" stroke="#8a9293" stroke-width=".8"/>
<path d="M122 34H139V80H122Z" fill="none" stroke="#71838c" stroke-width="1" stroke-linejoin="round"/><rect x="126" y="41" width="9" height="18" rx="4.5" fill="url(#glass)"/><path d="M136 67v4" fill="none" stroke="#41545e" stroke-width="1" stroke-linejoin="round"/><path d="M302 27V87" fill="none" stroke="#697b84" stroke-width="1.2" stroke-linejoin="round"/><path d="M111 79H307" fill="none" stroke="#82959f" stroke-width="0.8" stroke-linejoin="round"/>
<rect x="166" y="82" width="11" height="4" rx=".5" fill="#83949e" opacity=".6"/><rect x="196" y="82" width="11" height="4" rx=".5" fill="#83949e" opacity=".6"/><rect x="226" y="82" width="11" height="4" rx=".5" fill="#83949e" opacity=".6"/><rect x="256" y="82" width="11" height="4" rx=".5" fill="#83949e" opacity=".6"/><rect x="284" y="82" width="11" height="4" rx=".5" fill="#83949e" opacity=".6"/><path d="M181 24H207 M216 24H240 M251 24H278" fill="none" stroke="#a5b5bc" stroke-width="1.4" stroke-linejoin="round"/><path d="M22 78Q28 73 37 73Q43 78 43 86" fill="none" stroke="#788a94" stroke-width="0.9" stroke-linejoin="round"/></g><path d="M27 82Q22 66 34 45Q49 21 91 20H302Q309 20 309 28V88H43Q29 88 27 82Z" fill="none" stroke="#405666" stroke-width="1.5" stroke-linejoin="round"/></svg>
